<svg width="20" height="20" viewBox="0 0 20 20" fill="none" xmlns="http://www.w3.org/2000/svg">
<rect width="20" height="20" rx="10" fill="white" fill-opacity="0.6"/>
<path d="M15.5521 14.7187C14.8958 14.7031 14.2552 14.7031 13.5989 14.7187C13.4583 14.7187 13.4271 14.6875 13.4271 14.5468C13.4271 13.3906 13.4271 12.2187 13.4271 11.0625C13.4271 10.7968 13.4114 10.5312 13.3333 10.2812C13.0989 9.4687 12.1614 9.17183 11.4896 9.7187C11.1302 9.99995 10.9896 10.3906 10.9896 10.8593C10.9896 11.9531 10.9896 13.0468 10.9896 14.1406C10.9896 14.2812 10.9739 14.4218 10.9896 14.5781C11.0052 14.7031 10.9427 14.7343 10.8333 14.7187C10.1614 14.7187 9.50519 14.7187 8.83331 14.7187C8.70831 14.7187 8.67706 14.6875 8.67706 14.5625C8.69269 13.5781 8.69269 12.5937 8.69269 11.5937C8.69269 10.375 8.69269 9.1562 8.67706 7.95308C8.67706 7.81245 8.70831 7.7812 8.83331 7.7812C9.50519 7.7812 10.1614 7.7812 10.8333 7.7812C10.9583 7.7812 10.9896 7.81245 10.9896 7.93745C10.9896 8.18745 10.9896 8.43745 10.9896 8.73433C11.0364 8.68745 11.0521 8.67183 11.0677 8.6562C11.6771 7.76558 12.5364 7.51558 13.5521 7.67183C14.7239 7.85933 15.4739 8.67183 15.6614 9.92183C15.7083 10.2187 15.7239 10.5156 15.7239 10.8125C15.7239 12.0625 15.7239 13.2968 15.7239 14.5468C15.7239 14.6718 15.6927 14.7187 15.5521 14.7187Z" fill="#1B1F23"/>
<path d="M7.42706 11.25C7.42706 12.3438 7.42706 13.4375 7.42706 14.5313C7.42706 14.6719 7.39581 14.7188 7.25519 14.7188C6.59894 14.7031 5.94269 14.7188 5.28644 14.7188C5.16144 14.7188 5.13019 14.6875 5.13019 14.5625C5.13019 12.3594 5.13019 10.1406 5.13019 7.9375C5.13019 7.82813 5.16144 7.78125 5.28644 7.78125C5.95831 7.78125 6.63019 7.78125 7.30206 7.78125C7.44269 7.78125 7.45831 7.82813 7.45831 7.95313C7.42706 9.04688 7.42706 10.1406 7.42706 11.25Z" fill="#1B1F23"/>
<path d="M7.53646 5.96876C7.38021 6.59376 6.73958 6.95313 6.00521 6.82813C5.22396 6.70313 4.78646 5.93751 5.06771 5.18751C5.25521 4.71876 5.70833 4.43751 6.28646 4.45313C7.16146 4.43751 7.73958 5.14063 7.53646 5.96876Z" fill="#1B1F23"/>
</svg>
