<svg width="20" height="20" viewBox="0 0 20 20" fill="none" xmlns="http://www.w3.org/2000/svg">
<rect width="20" height="20" rx="10" fill="white" fill-opacity="0.6"/>
<path d="M15.5521 14.7187C14.8958 14.7031 14.2552 14.7031 13.599 14.7187C13.4583 14.7187 13.4271 14.6875 13.4271 14.5468C13.4271 13.3906 13.4271 12.2187 13.4271 11.0625C13.4271 10.7968 13.4115 10.5312 13.3333 10.2812C13.099 9.4687 12.1615 9.17183 11.4896 9.7187C11.1302 9.99995 10.9896 10.3906 10.9896 10.8593C10.9896 11.9531 10.9896 13.0468 10.9896 14.1406C10.9896 14.2812 10.974 14.4218 10.9896 14.5781C11.0052 14.7031 10.9427 14.7343 10.8333 14.7187C10.1615 14.7187 9.50522 14.7187 8.83334 14.7187C8.70834 14.7187 8.67709 14.6875 8.67709 14.5625C8.69272 13.5781 8.69272 12.5937 8.69272 11.5937C8.69272 10.375 8.69272 9.1562 8.67709 7.95308C8.67709 7.81245 8.70834 7.7812 8.83334 7.7812C9.50522 7.7812 10.1615 7.7812 10.8333 7.7812C10.9583 7.7812 10.9896 7.81245 10.9896 7.93745C10.9896 8.18745 10.9896 8.43745 10.9896 8.73433C11.0365 8.68745 11.0521 8.67183 11.0677 8.6562C11.6771 7.76558 12.5365 7.51558 13.5521 7.67183C14.724 7.85933 15.474 8.67183 15.6615 9.92183C15.7083 10.2187 15.724 10.5156 15.724 10.8125C15.724 12.0625 15.724 13.2968 15.724 14.5468C15.724 14.6718 15.6927 14.7187 15.5521 14.7187Z" fill="#226BF9"/>
<path d="M7.42709 11.25C7.42709 12.3438 7.42709 13.4375 7.42709 14.5313C7.42709 14.6719 7.39584 14.7188 7.25522 14.7188C6.59897 14.7031 5.94272 14.7188 5.28647 14.7188C5.16147 14.7188 5.13022 14.6875 5.13022 14.5625C5.13022 12.3594 5.13022 10.1406 5.13022 7.9375C5.13022 7.82813 5.16147 7.78125 5.28647 7.78125C5.95834 7.78125 6.63022 7.78125 7.30209 7.78125C7.44272 7.78125 7.45834 7.82813 7.45834 7.95313C7.42709 9.04688 7.42709 10.1406 7.42709 11.25Z" fill="#226BF9"/>
<path d="M7.53646 5.96876C7.38021 6.59376 6.73958 6.95313 6.00521 6.82813C5.22396 6.70313 4.78646 5.93751 5.06771 5.18751C5.25521 4.71876 5.70833 4.43751 6.28646 4.45313C7.16146 4.43751 7.73958 5.14063 7.53646 5.96876Z" fill="#226BF9"/>
</svg>
