<svg width="20" height="20" viewBox="0 0 20 20" fill="none" xmlns="http://www.w3.org/2000/svg">
<rect width="20" height="20" rx="10" fill="white" fill-opacity="0.6"/>
<path d="M14.901 7.8385C14.901 7.94788 14.901 8.05725 14.901 8.151C14.901 11.3854 12.4323 15.1198 7.93228 15.1198C6.54166 15.1198 5.26041 14.7135 4.16666 14.026C4.35416 14.0416 4.55728 14.0573 4.74478 14.0573C5.88541 14.0573 6.94791 13.6666 7.79166 13.0104C6.71353 12.9948 5.80728 12.276 5.51041 11.3073C5.66666 11.3385 5.80728 11.3541 5.97916 11.3541C6.19791 11.3541 6.41666 11.3229 6.61978 11.2604C5.49478 11.0416 4.65103 10.0573 4.65103 8.86975C4.65103 8.85413 4.65103 8.85413 4.65103 8.8385C4.97916 9.026 5.35416 9.13538 5.76041 9.151C5.10416 8.7135 4.66666 7.9635 4.66666 7.10413C4.66666 6.651 4.79166 6.22913 4.99478 5.86975C6.19791 7.35413 8.01041 8.32288 10.0417 8.43225C9.99478 8.26038 9.97916 8.05725 9.97916 7.86975C9.97916 6.51038 11.0729 5.41663 12.4323 5.41663C13.1354 5.41663 13.776 5.7135 14.2135 6.18225C14.776 6.07288 15.2917 5.86975 15.776 5.5885C15.5885 6.16663 15.1979 6.63538 14.6979 6.94788C15.1979 6.88538 15.6667 6.76038 16.1042 6.55725C15.7917 7.05725 15.3854 7.49475 14.901 7.8385Z" fill="#226BF9"/>
</svg>
