<svg width="24" height="21" viewBox="0 0 24 21" fill="none" xmlns="http://www.w3.org/2000/svg">
<path fill-rule="evenodd" clip-rule="evenodd" d="M1 2.58333C1 1.70888 1.44772 1 2 1H22C22.5523 1 23 1.70888 23 2.58333C23 3.45778 22.5523 4.16667 22 4.16667H2C1.44772 4.16667 1 3.45778 1 2.58333Z" fill="white" stroke="#FD6314" stroke-opacity="0.992157" stroke-linecap="round" stroke-linejoin="round"/>
<path fill-rule="evenodd" clip-rule="evenodd" d="M6 10.5833C6 9.70888 6.34596 9 6.77273 9H22.2273C22.654 9 23 9.70888 23 10.5833C23 11.4578 22.654 12.1667 22.2273 12.1667H6.77273C6.34596 12.1667 6 11.4578 6 10.5833Z" fill="white" stroke="#FD6314" stroke-linecap="round" stroke-linejoin="round"/>
<path fill-rule="evenodd" clip-rule="evenodd" d="M11 18.5833C11 17.7089 11.2442 17 11.5455 17H22.4545C22.7558 17 23 17.7089 23 18.5833C23 19.4578 22.7558 20.1667 22.4545 20.1667H11.5455C11.2442 20.1667 11 19.4578 11 18.5833Z" fill="white" stroke="#FD6314" stroke-linecap="round" stroke-linejoin="round"/>
</svg>
