<svg xmlns="http://www.w3.org/2000/svg" viewBox="0 0 220.1 62.44"><defs><style>.a{fill:#262d3d;}.b{fill:#204ecf;}</style></defs><title>Toptal logo - Brandlogos.net</title><path class="a" d="M546.06,501.32a14.93,14.93,0,0,0-11.42-5.09c-4.34,0-8.65,3-11.3,6v-5.6h-8.1l-.09,46v.6h8.14l0-14.37a14.25,14.25,0,0,0,10.68,4.4,15.72,15.72,0,0,0,11.91-5c3.17-3.37,4.78-8.12,4.79-13.57S549.17,504.58,546.06,501.32Zm-13.37,2.48a9,9,0,0,1,6.95,3.09,10.68,10.68,0,0,1,2.86,7.72,11.6,11.6,0,0,1-2.9,8.08,9.53,9.53,0,0,1-13.88,0,11.61,11.61,0,0,1-2.87-8.09,10.75,10.75,0,0,1,2.9-7.72,9.06,9.06,0,0,1,6.92-3.05Z" transform="translate(-401.95 -480.78)"/><path class="a" d="M554.85,503.5l0,19.4c0,4.18,1.14,7.17,3.4,8.87a8.63,8.63,0,0,0,5.32,1.6,21.81,21.81,0,0,0,4.19-.66l-.73-7.07s-1.87.6-2.77,0-1.29-1.94-1.29-3.92l0-18.18h7.54v-6.75H563l0-9.69h-8.13l0,9.69H548Z" transform="translate(-401.95 -480.78)"/><polygon class="a" points="86.16 5.76 46.05 5.76 46.04 13.79 62.07 13.79 62.01 51.29 62.01 52.03 70.48 52.04 70.45 13.8 86.16 13.79 86.16 5.76"/><path class="b" d="M444.92,507.06,432.85,495,418.7,480.78l-6.1,6.07,8.92,8.94L402,515.29l26.31,26.35,6-6-9-9ZM419.83,520a.88.88,0,0,1-.54,0,1.48,1.48,0,0,1-.65-.46l-3.55-3.56a1.52,1.52,0,0,1-.46-.65.88.88,0,0,1,0-.54,1.48,1.48,0,0,1,.46-.65L426.27,503a1.37,1.37,0,0,1,.65-.45.88.88,0,0,1,.54,0,1.48,1.48,0,0,1,.65.46l3.55,3.56a1.37,1.37,0,0,1,.45.65.88.88,0,0,1,0,.54,1.48,1.48,0,0,1-.46.65l-11.18,11.15A1.39,1.39,0,0,1,419.83,520Z" transform="translate(-401.95 -480.78)"/><path class="a" d="M506.92,501.53a16.73,16.73,0,0,0-12.47-5.19,17.38,17.38,0,0,0-12.27,4.9c-3.49,3.28-5.27,7.83-5.28,13.52s1.76,10.25,5.24,13.54a17.45,17.45,0,0,0,12.28,4.94H495a16.86,16.86,0,0,0,11.92-5.15,19.8,19.8,0,0,0,0-26.58m-2.56,13.29a11.58,11.58,0,0,1-2.91,8.11,9.47,9.47,0,0,1-14.08,0,13.05,13.05,0,0,1,0-16.23,9.47,9.47,0,0,1,14.08,0,11.47,11.47,0,0,1,2.89,8.12" transform="translate(-401.95 -480.78)"/><path class="a" d="M579.78,509.23c0-2.07,1.09-6.62,7.08-6.62a6.2,6.2,0,0,1,4.35,1.57c1,.82,1.48,2.83,1.48,4.5v.78l-9.9,1.54c-7.84,1.2-12.34,5.41-12.36,11.59a10.37,10.37,0,0,0,3.37,8,12.68,12.68,0,0,0,8.69,3c4.44,0,7.77-1.6,10.16-4.9,0,1.4,0,2.81,0,4.12h8.26l.06-23.71c0-3.87-1.25-7.62-3.75-9.68s-5.68-3.07-10.35-3.08h-.07c-3.56,0-7.33.94-9.87,3.14a13.67,13.67,0,0,0-4.45,9.84Zm3.75,17.24c-2.93,0-4.83-1.68-4.82-4.24s1.87-4.22,5.84-4.89l8.13-1.38V516c0,6.14-3.77,10.43-9.12,10.43Z" transform="translate(-401.95 -480.78)"/><polygon class="a" points="202.91 6.31 202.83 51.77 202.83 51.97 210.13 51.99 210.21 6.52 210.21 6.32 202.91 6.31"/><path class="a" d="M616.37,530a2.84,2.84,0,0,1,5.68,0,2.69,2.69,0,0,1-.84,2,2.74,2.74,0,0,1-2,.83,2.83,2.83,0,0,1-2.83-2.83Zm.47,0a2.35,2.35,0,0,0,.68,1.7,2.39,2.39,0,0,0,3.37,0,2.34,2.34,0,0,0,.69-1.7,2.3,2.3,0,0,0-.69-1.69,2.35,2.35,0,0,0-3.36,0A2.3,2.3,0,0,0,616.84,530Zm3,1.55-.76-1.35h-.51v1.35h-.47v-3.11h1.26a.87.87,0,1,1,.23,1.73l.77,1.38Zm-1.28-2.7v1h.73q.6,0,.6-.47c0-.32-.2-.48-.6-.48Z" transform="translate(-401.95 -480.78)"/></svg>