<?xml version="1.0" standalone="no"?>
<!DOCTYPE svg PUBLIC "-//W3C//DTD SVG 20010904//EN"
 "http://www.w3.org/TR/2001/REC-SVG-20010904/DTD/svg10.dtd">
<svg version="1.0" xmlns="http://www.w3.org/2000/svg"
 width="260.000000pt" height="260.000000pt" viewBox="0 0 260.000000 260.000000"
 preserveAspectRatio="xMidYMid meet">
<metadata>
Created by potrace 1.14, written by Peter Selinger 2001-2017
</metadata>
<g transform="translate(0.000000,260.000000) scale(0.100000,-0.100000)"
fill="#000000" stroke="none">
<path d="M135 2588 c-49 -17 -92 -55 -114 -101 l-21 -44 2 -1156 3 -1155 30
-43 c17 -23 50 -53 74 -66 l45 -23 1157 2 1157 3 43 30 c23 17 53 50 66 74
l23 45 -2 1157 -3 1157 -30 43 c-16 23 -50 53 -74 66 l-44 23 -1141 -1 c-768
0 -1151 -4 -1171 -11z m843 -603 c1 -139 -2 -251 -9 -283 -14 -68 -61 -129
-124 -161 -44 -23 -61 -26 -160 -26 -105 0 -113 2 -165 31 -67 38 -108 98
-112 164 l-3 45 82 3 81 3 11 -34 c23 -69 89 -100 154 -73 65 27 72 48 75 248
l4 178 -169 0 c-118 0 -173 4 -181 12 -7 7 -12 31 -12 54 0 79 -18 75 269 72
l256 -3 3 -230z m720 14 l3 -86 36 18 c98 50 214 -5 244 -113 6 -24 9 -75 7
-114 -6 -88 -37 -151 -88 -176 -47 -24 -126 -23 -173 2 -31 17 -37 17 -37 5 0
-12 -13 -15 -60 -15 l-60 0 0 285 0 286 63 -3 62 -3 3 -86z m-296 -80 c62 -34
88 -90 88 -190 0 -88 -10 -122 -48 -163 -39 -41 -82 -56 -159 -56 -142 1 -212
69 -213 210 0 110 43 186 125 216 57 20 152 13 207 -17z m-788 -679 c66 -25
132 -92 141 -143 4 -20 4 -40 0 -46 -7 -12 -134 -15 -150 -3 -6 4 -18 19 -28
34 -43 69 -197 52 -197 -22 0 -39 33 -63 117 -84 234 -61 283 -99 283 -224 0
-79 -36 -136 -111 -177 -51 -28 -60 -29 -174 -30 -112 0 -124 2 -178 28 -61
31 -102 75 -117 128 -14 47 1 59 72 59 55 0 61 -2 96 -39 29 -30 47 -40 84
-45 120 -18 204 59 127 117 -15 10 -76 32 -135 49 -60 16 -122 37 -138 46
-100 59 -128 204 -54 288 55 62 108 82 225 83 60 1 97 -5 137 -19z m414 -197
l3 -72 57 -3 57 -3 0 -45 0 -45 -57 -3 -58 -3 0 -92 c0 -51 4 -99 10 -107 5
-8 31 -17 62 -20 l53 -5 0 -45 0 -45 -74 -3 c-87 -3 -123 9 -154 52 -19 27
-22 46 -26 149 l-3 117 -40 0 -39 0 3 48 c3 47 3 47 41 50 l37 3 0 68 c0 37 3
71 7 75 4 4 32 6 63 4 l55 -3 3 -72z m504 -94 c61 -34 88 -90 88 -186 0 -82
-17 -133 -57 -176 -66 -68 -252 -62 -316 11 -69 77 -60 260 16 330 61 57 185
66 269 21z m288 2 c0 -18 1 -18 37 0 21 11 58 19 86 19 l48 0 -3 -57 -3 -58
-63 -5 c-83 -7 -92 -19 -92 -126 0 -44 -3 -102 -6 -128 l-7 -46 -58 0 -59 0 0
203 c0 112 3 207 7 210 3 4 30 7 60 7 45 0 53 -3 53 -19z m508 0 c67 -34 102
-95 102 -175 l0 -45 -137 -3 -138 -3 2 -29 c5 -64 74 -90 128 -48 20 16 42 22
77 22 62 0 72 -19 32 -61 -46 -49 -82 -63 -159 -63 -133 -1 -197 59 -204 191
-5 113 24 174 104 216 43 23 146 22 193 -2z"/>
<path d="M1721 1814 c-26 -32 -29 -120 -6 -164 31 -60 117 -44 137 26 11 38 2
111 -17 141 -23 34 -86 32 -114 -3z"/>
<path d="M1236 1837 c-33 -24 -42 -146 -14 -200 24 -47 107 -38 128 14 18 42
9 153 -14 178 -22 24 -73 28 -100 8z"/>
<path d="M1361 861 c-37 -37 -38 -157 -2 -203 24 -29 75 -29 104 1 19 18 22
33 22 100 0 64 -4 83 -19 100 -24 27 -79 28 -105 2z"/>
<path d="M2177 873 c-8 -10 -19 -30 -22 -45 l-7 -28 81 0 c90 0 94 4 61 58
-17 27 -25 32 -58 32 -24 0 -45 -7 -55 -17z"/>
</g>
</svg>
