<svg width="72" height="72" viewBox="0 0 72 72" fill="none" xmlns="http://www.w3.org/2000/svg">
<rect width="72" height="72" rx="12" fill="#12141D"/>
<path d="M30.1667 54.9996C33.5707 54.9996 36.3333 52.2369 36.3333 48.8329V42.6663H30.1667C26.7627 42.6663 24 45.4289 24 48.8329C24 52.2369 26.7627 54.9996 30.1667 54.9996Z" fill="#0ACF83"/>
<path d="M24 36.5004C24 33.0964 26.7627 30.3337 30.1667 30.3337H36.3333V42.6671H30.1667C26.7627 42.6671 24 39.9044 24 36.5004Z" fill="#A259FF"/>
<path d="M24 24.1667C24 20.7627 26.7627 18 30.1667 18H36.3333V30.3333H30.1667C26.7627 30.3333 24 27.5707 24 24.1667Z" fill="#F24E1E"/>
<path d="M36.3348 18H42.5015C45.9055 18 48.6682 20.7627 48.6682 24.1667C48.6682 27.5707 45.9055 30.3333 42.5015 30.3333H36.3348V18Z" fill="#FF7262"/>
<path d="M48.6682 36.5004C48.6682 39.9044 45.9055 42.6671 42.5015 42.6671C39.0975 42.6671 36.3348 39.9044 36.3348 36.5004C36.3348 33.0964 39.0975 30.3337 42.5015 30.3337C45.9055 30.3337 48.6682 33.0964 48.6682 36.5004Z" fill="#1ABCFE"/>
</svg>
