<svg width="16" height="16" viewBox="0 0 16 16" fill="none" xmlns="http://www.w3.org/2000/svg">
<path d="M4.5875 12.6003C4.31417 12.6003 4.0875 12.3737 4.0875 12.1003V10.7203C4.0875 10.447 4.31417 10.2203 4.5875 10.2203C4.86083 10.2203 5.0875 10.447 5.0875 10.7203V12.1003C5.0875 12.3803 4.86083 12.6003 4.5875 12.6003Z" fill="#888888"/>
<path d="M8 12.6003C7.72667 12.6003 7.5 12.3736 7.5 12.1003V9.33362C7.5 9.06028 7.72667 8.83362 8 8.83362C8.27333 8.83362 8.5 9.06028 8.5 9.33362V12.1003C8.5 12.3803 8.27333 12.6003 8 12.6003Z" fill="#888888"/>
<path d="M11.4125 12.5998C11.1392 12.5998 10.9125 12.3731 10.9125 12.0998V7.95313C10.9125 7.67979 11.1392 7.45312 11.4125 7.45312C11.6858 7.45312 11.9125 7.67979 11.9125 7.95313V12.0998C11.9125 12.3798 11.6925 12.5998 11.4125 12.5998Z" fill="#888888"/>
<path d="M4.58613 8.78657C4.35946 8.78657 4.15946 8.63324 4.09946 8.40657C4.03279 8.13991 4.19279 7.86657 4.46613 7.79991C6.91946 7.18657 9.07946 5.84657 10.7261 3.93324L11.0328 3.57324C11.2128 3.36657 11.5261 3.33991 11.7395 3.51991C11.9461 3.69991 11.9728 4.01324 11.7928 4.22657L11.4861 4.58657C9.70613 6.66657 7.35946 8.11324 4.70613 8.77324C4.66613 8.78657 4.62613 8.78657 4.58613 8.78657Z" fill="#888888"/>
<path d="M11.4127 6.34669C11.1394 6.34669 10.9127 6.12002 10.9127 5.84669V4.40002H9.45938C9.18605 4.40002 8.95938 4.17336 8.95938 3.90002C8.95938 3.62669 9.18605 3.40002 9.45938 3.40002H11.4127C11.686 3.40002 11.9127 3.62669 11.9127 3.90002V5.85336C11.9127 6.12669 11.6927 6.34669 11.4127 6.34669Z" fill="#888888"/>
<path d="M10.001 15.167H6.00104C2.38104 15.167 0.834373 13.6203 0.834373 10.0003V6.00028C0.834373 2.38028 2.38104 0.833618 6.00104 0.833618H10.001C13.621 0.833618 15.1677 2.38028 15.1677 6.00028V10.0003C15.1677 13.6203 13.621 15.167 10.001 15.167ZM6.00104 1.83362C2.92771 1.83362 1.83437 2.92695 1.83437 6.00028V10.0003C1.83437 13.0736 2.92771 14.167 6.00104 14.167H10.001C13.0744 14.167 14.1677 13.0736 14.1677 10.0003V6.00028C14.1677 2.92695 13.0744 1.83362 10.001 1.83362H6.00104Z" fill="#888888"/>
</svg>
