<svg width="24" height="21" viewBox="0 0 24 21" fill="none" xmlns="http://www.w3.org/2000/svg">
<path fill-rule="evenodd" clip-rule="evenodd" d="M1 2.58333C1 1.70888 1.44772 1 2 1H22C22.5523 1 23 1.70888 23 2.58333C23 3.45778 22.5523 4.16667 22 4.16667H2C1.44772 4.16667 1 3.45778 1 2.58333Z" fill="white" stroke="#FD6314" stroke-opacity="0.992157" stroke-linecap="round" stroke-linejoin="round"/>
<path fill-rule="evenodd" clip-rule="evenodd" d="M1 10.5833C1 9.70888 1.44772 9 2 9H22C22.5523 9 23 9.70888 23 10.5833C23 11.4578 22.5523 12.1667 22 12.1667H2C1.44772 12.1667 1 11.4578 1 10.5833Z" fill="white" stroke="#FD6314" stroke-linecap="round" stroke-linejoin="round"/>
<path fill-rule="evenodd" clip-rule="evenodd" d="M1 18.5833C1 17.7089 1.44772 17 2 17H22C22.5523 17 23 17.7089 23 18.5833C23 19.4578 22.5523 20.1667 22 20.1667H2C1.44772 20.1667 1 19.4578 1 18.5833Z" fill="white" stroke="#FD6314" stroke-linecap="round" stroke-linejoin="round"/>
</svg>
