<svg width="20" height="20" viewBox="0 0 20 20" fill="none" xmlns="http://www.w3.org/2000/svg">
<rect width="20" height="20" rx="10" fill="white" fill-opacity="0.6"/>
<path d="M14.9011 7.8385C14.9011 7.94788 14.9011 8.05725 14.9011 8.151C14.9011 11.3854 12.4323 15.1198 7.93231 15.1198C6.54169 15.1198 5.26044 14.7135 4.16669 14.026C4.35419 14.0416 4.55731 14.0573 4.74481 14.0573C5.88544 14.0573 6.94794 13.6666 7.79169 13.0104C6.71356 12.9948 5.80731 12.276 5.51044 11.3073C5.66669 11.3385 5.80731 11.3541 5.97919 11.3541C6.19794 11.3541 6.41669 11.3229 6.61981 11.2604C5.49481 11.0416 4.65106 10.0573 4.65106 8.86975C4.65106 8.85413 4.65106 8.85413 4.65106 8.8385C4.97919 9.026 5.35419 9.13538 5.76044 9.151C5.10419 8.7135 4.66669 7.9635 4.66669 7.10413C4.66669 6.651 4.79169 6.22913 4.99481 5.86975C6.19794 7.35413 8.01044 8.32288 10.0417 8.43225C9.99481 8.26038 9.97919 8.05725 9.97919 7.86975C9.97919 6.51038 11.0729 5.41663 12.4323 5.41663C13.1354 5.41663 13.7761 5.7135 14.2136 6.18225C14.7761 6.07288 15.2917 5.86975 15.7761 5.5885C15.5886 6.16663 15.1979 6.63538 14.6979 6.94788C15.1979 6.88538 15.6667 6.76038 16.1042 6.55725C15.7917 7.05725 15.3854 7.49475 14.9011 7.8385Z" fill="#1B1F23"/>
</svg>
