<svg width="20" height="20" viewBox="0 0 20 20" fill="none" xmlns="http://www.w3.org/2000/svg">
<circle cx="10" cy="10" r="10" fill="white" fill-opacity="0.6"/>
<path d="M12.0833 1.91663C11.25 1.91663 10.5 2.58329 10.5 3.49996V7.33329C10.5 8.16663 11.1667 8.91663 12.0833 8.91663C12.9167 8.91663 13.6667 8.24996 13.6667 7.33329V3.41663C13.6667 2.58329 13 1.91663 12.0833 1.91663Z" fill="#226BF9" stroke="#226BF9" stroke-width="0.7" stroke-miterlimit="10" stroke-linecap="round" stroke-linejoin="round"/>
<path d="M15.5 8.83329H16.8333C17.5833 8.83329 18.1667 8.24996 18.1667 7.49996C18.1667 6.74996 17.5833 6.16663 16.8333 6.16663C16.0833 6.16663 15.5 6.74996 15.5 7.49996V8.83329Z" fill="#226BF9" stroke="#226BF9" stroke-width="0.7" stroke-miterlimit="10" stroke-linecap="round" stroke-linejoin="round"/>
<path d="M1.66666 7.66671C1.66666 8.50004 2.33332 9.25004 3.24999 9.25004H7.08332C7.91666 9.25004 8.66666 8.58337 8.66666 7.66671C8.66666 6.83337 7.99999 6.08337 7.08332 6.08337H3.24999C2.33332 6.16671 1.66666 6.83337 1.66666 7.66671Z" fill="#226BF9" stroke="#226BF9" stroke-width="0.7" stroke-miterlimit="10" stroke-linecap="round" stroke-linejoin="round"/>
<path d="M8.66667 4.24996V2.99996C8.66667 2.24996 8.08333 1.66663 7.33333 1.66663C6.58333 1.66663 6 2.24996 6 2.99996C6 3.74996 6.58333 4.33329 7.33333 4.33329H8.66667V4.24996Z" fill="#226BF9" stroke="#226BF9" stroke-width="0.7" stroke-miterlimit="10" stroke-linecap="round" stroke-linejoin="round"/>
<path d="M7.83333 18.1666C8.66667 18.1666 9.41667 17.5 9.41667 16.5833V12.75C9.41667 11.9166 8.75 11.1666 7.83333 11.1666C7 11.1666 6.25 11.8333 6.25 12.75V16.5833C6.33333 17.4166 7 18.1666 7.83333 18.1666Z" fill="#226BF9" stroke="#226BF9" stroke-width="0.7" stroke-miterlimit="10" stroke-linecap="round" stroke-linejoin="round"/>
<path d="M4.50001 11.1666H3.16668C2.41668 11.1666 1.83334 11.75 1.83334 12.5C1.83334 13.25 2.41668 13.8333 3.16668 13.8333C3.91668 13.8333 4.50001 13.25 4.50001 12.5V11.1666Z" fill="#226BF9" stroke="#226BF9" stroke-width="0.7" stroke-miterlimit="10" stroke-linecap="round" stroke-linejoin="round"/>
<path d="M18.3333 12.3333C18.3333 11.5 17.6667 10.75 16.75 10.75H12.9167C12.0833 10.75 11.3333 11.4167 11.3333 12.3333C11.3333 13.1667 12 13.9167 12.9167 13.9167H16.75C17.5833 13.9167 18.3333 13.1667 18.3333 12.3333Z" fill="#226BF9" stroke="#226BF9" stroke-width="0.7" stroke-miterlimit="10" stroke-linecap="round" stroke-linejoin="round"/>
<path d="M11.3333 15.6666V17C11.3333 17.75 11.9167 18.3333 12.6667 18.3333C13.4167 18.3333 14 17.75 14 17C14 16.25 13.4167 15.6666 12.6667 15.6666H11.3333Z" fill="#226BF9" stroke="#226BF9" stroke-width="0.7" stroke-miterlimit="10" stroke-linecap="round" stroke-linejoin="round"/>
</svg>
