<?xml version="1.0" standalone="no"?>
<!DOCTYPE svg PUBLIC "-//W3C//DTD SVG 20010904//EN"
 "http://www.w3.org/TR/2001/REC-SVG-20010904/DTD/svg10.dtd">
<svg version="1.0" xmlns="http://www.w3.org/2000/svg"
 width="700.000000pt" height="700.000000pt" viewBox="0 0 700.000000 700.000000"
 preserveAspectRatio="xMidYMid meet">
<metadata>
Created by potrace 1.14, written by Peter Selinger 2001-2017
</metadata>
<g transform="translate(0.000000,700.000000) scale(0.100000,-0.100000)"
fill="#000000" stroke="none">
<path d="M435 6990 c-189 -38 -343 -174 -407 -359 l-23 -66 0 -3065 0 -3065
23 -68 c57 -163 183 -286 352 -343 53 -18 152 -19 3120 -19 l3065 0 68 23
c161 56 283 179 339 341 l23 66 0 3065 0 3065 -23 68 c-55 159 -172 276 -338
339 l-59 23 -3050 1 c-1677 1 -3068 -2 -3090 -6z m2164 -1027 l22 -18 -3 -670
-3 -670 -28 -80 c-62 -176 -166 -295 -332 -378 -134 -67 -333 -98 -506 -78
-140 16 -208 34 -319 88 -165 79 -277 216 -314 380 -21 93 -21 151 1 175 14
16 35 18 200 18 184 0 184 0 207 -25 13 -14 29 -46 35 -72 38 -148 130 -213
302 -213 124 0 203 39 259 127 55 87 60 137 60 627 l0 446 -460 0 c-447 0
-461 1 -480 20 -18 18 -20 33 -20 155 0 131 1 137 25 160 l24 25 654 0 c609 0
656 -1 676 -17z m1949 -355 c9 -9 12 -79 12 -255 l0 -243 64 44 c143 98 314
109 472 31 117 -57 190 -154 231 -307 24 -90 24 -357 0 -448 -44 -162 -114
-258 -235 -317 l-76 -38 -131 0 c-127 0 -132 1 -195 32 -36 18 -82 49 -102 69
l-38 36 0 -43 c0 -73 -13 -79 -161 -79 -121 0 -129 1 -143 22 -14 20 -16 108
-16 750 0 647 2 728 16 742 12 13 41 16 153 16 93 0 141 -4 149 -12z m-909
-394 c168 -43 290 -156 344 -317 18 -54 21 -86 21 -247 0 -167 -2 -191 -22
-249 -80 -224 -251 -331 -527 -331 -297 0 -485 128 -541 366 -23 99 -20 358 4
446 55 196 203 316 432 349 71 10 217 1 289 -17z m-2059 -1858 c134 -44 216
-92 301 -176 84 -83 133 -165 151 -255 9 -46 8 -58 -6 -80 l-16 -25 -184 0
c-208 0 -209 0 -249 80 -49 98 -158 146 -316 138 -175 -9 -251 -68 -251 -195
0 -121 90 -171 475 -267 164 -40 316 -93 383 -132 181 -106 262 -296 221 -520
-57 -314 -426 -505 -896 -465 -227 20 -387 81 -511 196 -120 111 -198 308
-145 367 14 16 34 18 188 18 194 0 206 -4 245 -80 45 -88 152 -145 293 -156
141 -11 270 20 335 80 59 53 73 145 33 209 -39 64 -190 124 -492 198 -398 96
-569 259 -569 539 0 208 105 370 308 474 139 71 218 86 437 82 165 -3 187 -5
265 -30z m1168 -358 c9 -9 12 -68 12 -205 l0 -193 148 0 c102 0 152 -4 160
-12 8 -8 12 -48 12 -114 0 -136 2 -134 -182 -134 l-138 0 0 -220 c0 -253 8
-308 52 -345 28 -23 36 -25 140 -25 148 0 148 0 148 -136 0 -138 5 -134 -167
-134 -75 0 -164 5 -198 11 -127 22 -230 106 -271 223 -16 44 -19 92 -22 339
l-3 287 -87 0 c-128 0 -132 4 -132 134 0 66 4 106 12 114 8 8 47 12 110 12
l98 0 0 189 c0 159 3 192 16 205 12 13 41 16 148 16 89 0 136 -4 144 -12z
m1214 -389 c67 -14 181 -68 232 -110 54 -45 113 -140 139 -224 18 -60 21 -93
21 -230 0 -121 -4 -176 -17 -224 -35 -131 -110 -231 -218 -294 -149 -87 -465
-91 -630 -6 -107 54 -197 175 -230 309 -21 85 -18 359 5 435 54 178 177 297
354 339 70 17 271 20 344 5z m2209 -5 c83 -25 168 -74 226 -131 92 -92 153
-260 153 -419 0 -111 27 -104 -396 -104 l-364 0 6 -47 c9 -74 23 -112 57 -150
85 -96 209 -97 309 -3 l53 50 140 0 c176 0 191 -10 145 -101 -111 -217 -512
-309 -778 -178 -112 55 -206 169 -241 294 -22 80 -32 230 -21 321 31 247 155
405 365 465 81 24 271 25 346 3z m-1289 -21 c13 -11 18 -30 18 -66 l0 -49 41
37 c75 67 138 89 270 93 152 5 149 8 149 -142 0 -75 -4 -117 -12 -128 -11 -13
-41 -17 -154 -21 -126 -4 -147 -7 -185 -28 -26 -15 -52 -40 -66 -64 -22 -39
-23 -46 -23 -365 0 -278 -2 -329 -16 -348 -14 -21 -22 -22 -154 -22 -113 0
-142 3 -154 16 -14 14 -16 77 -16 541 0 476 2 528 17 545 14 16 33 18 141 18
103 0 129 -3 144 -17z"/>
<path d="M4679 4947 c-79 -42 -119 -138 -119 -287 0 -135 31 -234 89 -283 74
-62 220 -58 286 9 51 51 70 123 70 269 0 129 -16 198 -57 251 -51 65 -185 85
-269 41z"/>
<path d="M3355 4974 c-46 -24 -66 -45 -88 -94 -43 -95 -41 -375 3 -466 29 -59
81 -94 151 -101 108 -11 193 36 224 125 23 63 32 280 16 364 -26 133 -88 188
-212 188 -38 0 -76 -6 -94 -16z"/>
<path d="M3705 2362 c-49 -24 -68 -44 -97 -107 -21 -46 -23 -64 -23 -215 1
-150 3 -170 23 -215 29 -63 48 -84 97 -106 89 -41 214 -12 262 60 32 48 42 92
49 211 11 185 -19 301 -92 357 -49 37 -157 44 -219 15z"/>
<path d="M5915 2386 c-65 -28 -103 -93 -118 -198 l-6 -38 211 0 211 0 -6 54
c-9 88 -56 161 -120 185 -39 15 -135 13 -172 -3z"/>
</g>
</svg>
