<svg width="55" height="54" viewBox="0 0 55 54" fill="none" xmlns="http://www.w3.org/2000/svg">
<path fill-rule="evenodd" clip-rule="evenodd" d="M4.86918 28.0243C6.56621 21.1242 6.45508 14.4794 6.65846 7.48052C6.69798 6.11367 5.62426 4.97731 4.26154 4.93614C2.89799 4.89497 1.76002 5.97366 1.71967 7.3405C1.527 13.9771 1.68264 20.2925 0.0720724 26.8468C-0.253994 28.1724 0.557072 29.5146 1.8811 29.8357C3.2043 30.1651 4.54394 29.3499 4.86918 28.0243Z" fill="#FF6644"/>
<path fill-rule="evenodd" clip-rule="evenodd" d="M19.2862 41.3967C30.7989 30.8736 41.6464 17.337 49.2283 3.66857C49.8895 2.47465 49.4588 0.967762 48.2665 0.309043C47.0742 -0.349676 45.5691 0.0785273 44.9079 1.27246C37.5763 14.488 27.0854 27.5801 15.9531 37.7491C14.9469 38.6713 14.8769 40.2357 15.7966 41.2403C16.7164 42.2448 18.28 42.3189 19.2862 41.3967Z" fill="#FF6644"/>
<path fill-rule="evenodd" clip-rule="evenodd" d="M22.2024 52.8911C32.7321 54.6284 43.5853 51.6642 53.1598 47.4731C54.4089 46.9215 54.9787 45.4641 54.4328 44.2207C53.886 42.9692 52.4278 42.401 51.1787 42.9444C42.4589 46.765 32.597 49.5975 23.0069 48.0166C21.6615 47.7943 20.3893 48.7082 20.1678 50.0504C19.9455 51.3925 20.8578 52.6687 22.2024 52.8911Z" fill="#FF6644"/>
</svg>
